<svg xmlns="http://www.w3.org/2000/svg" version="1.0" preserveAspectRatio="xMidYMid meet" viewBox="208 343.2 844 133.8">
<metadata>
Created by potrace 1.16, written by Peter Selinger 2001-2019
</metadata>
<g transform="translate(0.000000,802.000000) scale(0.100000,-0.100000)" fill="#000000" stroke="none">
<path d="M2980 4572 c-43 -24 -90 -108 -90 -161 0 -20 9 -68 20 -106 11 -38 20 -71 20 -72 0 -1 -15 -5 -32 -8 -18 -4 -60 -20 -93 -34 -52 -24 -64 -35 -88 -79 -40 -73 -87 -218 -87 -267 0 -53 40 -115 138 -213 58 -59 71 -77 62 -88 -9 -10 -37 -174 -40 -226 0 -5 -160 -8 -355 -8 l-355 0 0 -30 0 -30 370 0 369 0 93 82 c91 79 95 85 175 236 45 85 84 156 87 159 2 3 67 -11 144 -31 187 -48 220 -48 247 5 17 33 19 77 5 115 -6 14 -51 87 -101 161 -85 127 -90 137 -80 166 17 48 13 83 -15 116 -47 56 -132 51 -168 -9 -16 -29 -36 -40 -36 -21 0 5 11 39 25 75 43 113 29 199 -38 250 -48 37 -128 45 -177 18z m143 -63 c15 -11 31 -38 38 -61 9 -37 7 -52 -20 -135 -38 -114 -38 -129 -6 -140 l24 -8 -50 -92 c-45 -84 -53 -93 -78 -93 -67 0 -110 -79 -76 -138 16 -27 16 -31 1 -61 -9 -17 -21 -29 -25 -26 -5 2 -30 36 -57 75 -47 70 -75 87 -88 53 -7 -16 1 -28 113 -191 54 -77 60 -96 37 -105 -37 -14 -199 140 -242 231 -16 35 -16 38 11 121 43 133 69 176 124 199 25 11 66 25 91 32 25 7 51 17 57 22 14 12 8 69 -14 132 -7 21 -13 61 -13 88 0 43 4 54 34 84 41 41 97 47 139 13z m226 -294 c13 -27 12 -33 -19 -92 l-32 -63 -27 19 c-15 11 -39 23 -54 26 -15 4 -27 11 -27 16 0 17 40 89 61 110 30 30 80 22 98 -16z m75 -275 c120 -180 128 -220 41 -220 -55 0 -346 84 -410 118 -56 30 -70 63 -36 82 24 12 60 5 121 -25 69 -34 215 -79 234 -72 33 13 12 40 -43 58 -30 11 -56 21 -58 23 -7 7 67 147 76 142 4 -3 38 -51 75 -106z m-347 -172 l53 -22 -66 -125 c-36 -69 -69 -129 -73 -133 -5 -6 -111 37 -111 46 0 2 11 1 25 -2 37 -7 73 6 86 29 16 31 14 83 -6 116 -17 28 -16 31 4 71 12 23 25 42 29 42 3 0 30 -10 59 -22z"/>
<path d="M3916 4258 c4 -7 74 -115 156 -239 l148 -225 0 -172 0 -172 55 0 55 0 0 173 0 172 150 228 c83 126 150 233 150 238 0 11 -110 12 -126 1 -6 -4 -61 -85 -122 -179 l-110 -173 -111 180 -112 180 -70 0 c-53 0 -68 -3 -63 -12z"/>
<path d="M6568 4264 c-5 -4 -8 -189 -8 -411 l0 -403 55 0 55 0 0 180 0 180 63 0 62 0 103 -180 104 -180 70 0 70 0 -23 38 c-13 20 -65 103 -115 184 l-93 147 49 16 c60 20 126 83 140 133 32 117 -16 228 -120 275 -38 17 -71 21 -225 25 -99 2 -183 1 -187 -4z m331 -110 c68 -20 94 -58 88 -127 -3 -38 -11 -56 -36 -80 l-31 -32 -125 -3 -125 -4 0 125 c0 68 3 127 7 130 12 13 170 7 222 -9z"/>
<path d="M4753 3996 c-134 -44 -211 -155 -201 -290 9 -113 82 -213 181 -251 107 -41 256 -1 333 89 114 133 64 355 -99 438 -52 26 -155 33 -214 14z m167 -108 c78 -41 108 -110 89 -207 -8 -40 -21 -65 -49 -94 -35 -38 -42 -41 -103 -45 -55 -4 -72 0 -107 19 -154 87 -94 349 80 349 28 0 63 -9 90 -22z"/>
<path d="M6101 3997 c-19 -6 -49 -26 -68 -44 l-33 -34 0 41 0 40 -50 0 -50 0 0 -275 0 -275 49 0 49 0 4 173 c3 151 5 176 23 207 29 49 78 72 138 66 l47 -5 0 59 0 60 -37 -1 c-21 -1 -53 -6 -72 -12z"/>
<path d="M7385 3990 c-114 -45 -176 -135 -176 -256 0 -105 34 -187 103 -243 95 -77 281 -66 383 22 l38 33 -43 34 -43 34 -17 -21 c-52 -65 -143 -81 -221 -40 -46 25 -89 77 -89 108 0 18 12 19 216 19 l217 0 -6 74 c-8 107 -55 189 -130 228 -60 31 -166 34 -232 8z m197 -94 c29 -19 58 -72 58 -105 0 -20 -4 -21 -160 -21 -175 0 -176 0 -146 58 47 91 164 123 248 68z"/>
<path d="M7990 4001 c-90 -28 -134 -79 -134 -157 0 -88 35 -123 164 -159 130 -37 158 -68 105 -120 -19 -20 -34 -25 -75 -25 -54 0 -81 10 -117 42 l-22 20 -40 -32 -40 -33 19 -27 c34 -48 84 -65 190 -65 83 0 101 3 138 25 57 32 82 74 82 136 0 54 -24 103 -62 128 -13 8 -59 25 -103 36 -103 28 -125 42 -125 80 0 62 100 80 169 31 l31 -22 35 27 c43 33 44 46 3 77 -59 44 -148 59 -218 38z"/>
<path d="M9225 3994 c-22 -8 -54 -29 -72 -46 l-33 -32 0 43 0 42 -47 -3 -48 -3 -3 -272 -2 -273 54 0 54 0 4 178 c3 165 5 179 26 215 39 61 105 83 167 55 49 -22 55 -50 55 -258 l0 -190 55 0 55 0 0 173 c0 159 2 176 23 217 25 51 55 70 110 70 49 0 90 -21 105 -55 8 -17 12 -90 12 -215 l0 -190 56 0 56 0 -4 208 c-3 189 -5 211 -25 247 -11 22 -32 50 -45 63 -69 64 -213 52 -284 -25 l-25 -27 -24 31 c-46 57 -137 77 -220 47z"/>
<path d="M10146 3986 c-134 -57 -193 -169 -166 -318 15 -85 58 -151 124 -192 60 -38 176 -48 253 -22 46 15 133 77 133 95 0 4 -17 20 -37 34 l-37 27 -31 -30 c-55 -53 -127 -64 -200 -31 -49 22 -95 74 -95 107 l0 24 215 0 215 0 0 43 c0 58 -26 144 -58 190 -61 91 -199 122 -316 73z m188 -85 c36 -20 63 -57 71 -98 l7 -33 -161 0 c-179 0 -177 -1 -145 66 39 82 145 112 228 65z"/>
<path d="M5260 3793 c0 -226 7 -260 61 -310 70 -64 215 -57 286 14 l33 34 0 -41 0 -40 50 0 50 0 0 275 0 275 -49 0 -49 0 -4 -172 c-4 -190 -14 -230 -68 -268 -34 -24 -108 -27 -149 -5 -53 27 -61 63 -61 264 l0 181 -50 0 -50 0 0 -207z"/>
<path d="M8390 3793 c0 -226 7 -260 61 -310 67 -61 207 -58 278 8 l31 28 0 -35 0 -34 55 0 55 0 0 276 0 275 -52 -3 -53 -3 -5 -180 c-5 -194 -13 -225 -64 -259 -32 -20 -108 -21 -147 0 -51 26 -59 62 -59 264 l0 180 -50 0 -50 0 0 -207z"/>
<path d="M6269 3589 c-37 -14 -55 -60 -40 -98 32 -75 141 -53 141 29 0 56 -47 88 -101 69z"/>
</g>
</svg>